<?xml version="1.0" encoding="iso-8859-1"?>
<!-- Uploaded to: SVG Repo, www.svgrepo.com, Generator: SVG Repo Mixer Tools -->
<svg fill="#000000" height="800px" width="800px" version="1.1" id="Layer_1" xmlns="http://www.w3.org/2000/svg" xmlns:xlink="http://www.w3.org/1999/xlink" 
	 viewBox="0 0 185.458 185.458" xml:space="preserve">
<g>
	<g>
		<g>
			<path d="M149.583,149.834c-1.849-27.829-25.016-49.921-53.306-49.921c-28.29,0-51.457,22.092-53.306,49.921H0v7.132h46.356
				h99.843h39.259v-7.132H149.583z M50.057,149.834c1.828-23.9,21.858-42.79,46.22-42.79s44.391,18.89,46.22,42.79H50.057z"/>
			<path d="M96.277,96.347c1.971,0,3.566-1.597,3.566-3.566V32.058c0-1.969-1.595-3.566-3.566-3.566
				c-1.971,0-3.566,1.597-3.566,3.566v60.723C92.711,94.75,94.306,96.347,96.277,96.347z"/>
			<path d="M142.026,114.12c0.913,0,1.825-0.348,2.521-1.045l36.55-36.551c1.393-1.393,1.393-3.649,0-5.042s-3.649-1.393-5.042,0
				l-36.55,36.551c-1.393,1.393-1.393,3.649,0,5.042C140.202,113.772,141.114,114.12,142.026,114.12z"/>
			<path d="M47.846,113.075c0.696,0.696,1.609,1.045,2.521,1.045s1.825-0.348,2.521-1.045c1.393-1.393,1.393-3.649,0-5.042
				l-36.55-36.551c-1.393-1.393-3.649-1.393-5.042,0s-1.393,3.649,0,5.042L47.846,113.075z"/>
		</g>
	</g>
</g>
</svg>